PathFileType	4	(X/Y/Z)	48_2_11_p0_0-513.trc
DataRate	CameraRate	NumFrames	NumMarkers	Units	OrigDataRate	OrigDataStartFrame	OrigNumFrames
58.0	58.0	5	27	m	58.0	192	514
Frame#	Time	RHip			RKnee			RAnkle			RBigToe			RSmallToe			RHeel			LHip			LKnee			LAnkle			LBigToe			LSmallToe			LHeel			Neck			Head			Nose			RShoulder			RElbow			RWrist			RThumb			RIndex			RPinky			LShoulder			LElbow			LWrist			LThumb			LIndex			LPinky			
		X1	Y1	Z1	X2	Y2	Z2	X3	Y3	Z3	X4	Y4	Z4	X5	Y5	Z5	X6	Y6	Z6	X7	Y7	Z7	X8	Y8	Z8	X9	Y9	Z9	X10	Y10	Z10	X11	Y11	Z11	X12	Y12	Z12	X13	Y13	Z13	X14	Y14	Z14	X15	Y15	Z15	X16	Y16	Z16	X17	Y17	Z17	X18	Y18	Z18	X19	Y19	Z19	X20	Y20	Z20	X21	Y21	Z21	X22	Y22	Z22	X23	Y23	Z23	X24	Y24	Z24	X25	Y25	Z25	X26	Y26	Z26	X27	Y27	Z27	
192	3.310344827586207	0.20697173962426366	0.4510945356918619	0.678167722596256	0.17229257181509475	0.5743588283815306	1.1463139754140128	0.14618815942184618	0.6816275566055117	1.5437545514280284	0.10891823730126615	0.4888167336700584	1.562260382604022	0.1650712754171998	0.48624341272983973	1.5630587598615615	0.1353833842742967	0.7739836484904615	1.6001589706598267	-0.011998124447889096	0.495428045881074	0.6760996585129819	-0.02899936877994071	0.6188871261093738	1.121197729435368	-0.015212762084617831	0.7013906648902959	1.5298980999145262	-0.05072056147376795	0.49033214024412825	1.5309169143248103	-0.09166147266932202	0.5572681828976284	1.5447567535419433	0.00522848688420266	0.7665183613543524	1.594081738733053	0.07975281773981825	0.48609259141952843	0.18632565781300828	0.034788083451793246	0.3897006097424778	-0.05993131040497112	0.057121242474040906	0.33424658866669804	0.0748114509290212	0.23358549863919753	0.4114963917705909	0.24096066946457786	0.29845574494363364	0.23576198660632694	0.4068459609263098	0.18182687110234907	0.05025236091022157	0.37823303276381626	0.10133836868342472	-0.025217226860952992	0.3214983068566831	0.10374682108630555	-0.027106964470924158	0.33434074253261536	0.11636785652319608	-0.013750864776379823	0.35957261652140265	-0.06406141653269108	0.49872074314549375	0.2651704746038928	-0.1287321407656684	0.5559579330655183	0.4750420280182823	-0.13774822127654365	0.3378194052946643	0.5667387995600868	-0.11335649845158761	0.23339267843448633	0.6073621471309372	-0.1328460484631961	0.19837504282804422	0.608137066101256	-0.1332792258080997	0.27058367336386646	0.6362735279077064
193	3.3275862068965516	0.20636654903554325	0.44932980647635035	0.6747933149007576	0.17227443466153208	0.5739817363164573	1.1461103131299606	0.14616917750689934	0.6814248318886469	1.5436375457084461	0.10995087259431625	0.4903861584634159	1.5673359941980582	0.1650274979006818	0.4862233905104494	1.563150173899376	0.13533337573822787	0.7736887180103311	1.5999718406604833	-0.008986416070079495	0.47986721557679535	0.6774637026787644	-0.029993761642573835	0.6184093435006945	1.1291238788546405	-0.014365927931807864	0.7036226245845677	1.5354553291533195	-0.05468840607653057	0.47701035820849147	1.5242849486526882	-0.09170587722420163	0.5564787685774631	1.5442471046175503	0.005557368330617258	0.7674399345306562	1.5981666137070893	0.08382512633159502	0.48711320476825376	0.18626672680880688	0.03477962047527366	0.389660946462616	-0.05995097861871851	0.05710768461910635	0.33433684286176396	0.07466013725003735	0.23397573310121592	0.4122315425957436	0.23772849830281576	0.30181848513208404	0.2854137326173375	0.3899806893013441	0.1719486490608987	0.052343772481992866	0.3783773419295928	0.07134408477919159	0.0470864355578359	0.34035441996222227	0.09039944698061576	-0.0077021764899042125	0.35168241347327844	0.10422471517657247	-0.025390621412297105	0.3994741574577242	-0.06407324416630937	0.4991987879940366	0.2653759930568387	-0.1289853212854641	0.5545310820422121	0.4712043841379263	-0.13774689128070905	0.3379148611979523	0.5668880780057566	-0.11337711070497038	0.23317613636242815	0.6072669471091711	-0.1360599372998876	0.18760099188811458	0.6059723927254803	-0.1306206742619234	0.2588525848837533	0.6369614682378868
194	3.3448275862068964	0.20647736866812	0.44941835718337664	0.6783910985574894	0.1723119549608148	0.574176379158098	1.146131435015166	0.14622678678988216	0.6814870269813139	1.5436767618865324	0.10566233139313479	0.48943371471731	1.5666628625629893	0.1699767878944245	0.49869368218606563	1.5694300647982768	0.135440762464344	0.7739977107929329	1.6001810208241762	-0.01199726160867528	0.49453925714353236	0.6798683760799955	-0.028976233747296607	0.6184554153705709	1.125041071538281	-0.014143379794804067	0.701068968182361	1.5257307832340654	-0.05068924105601684	0.4905641636150934	1.5311118340095284	-0.09180003860484433	0.5576043859591368	1.545067987047737	0.0051617019088654745	0.7666013201992485	1.5940568168952407	0.08382581320470955	0.4869851876162993	0.18647596188637836	0.032101900375219025	0.40173587157552754	-0.06073998425653647	0.05487036507744908	0.34656018865339033	0.07432568918802364	0.23792509766476655	0.4121456084238147	0.23791678540854536	0.3073543611224598	0.2697000870307236	0.39537551690371514	0.1711776568067983	0.05152449581679391	0.3846785156603647	0.05934553871190564	0.015878300807866064	0.3498158718620042	0.06536951552062711	0.00381473777692825	0.3556885997543317	0.0987919266580924	-0.016534842325333584	0.4068247757260268	-0.06394171766195347	0.4992110821884403	0.26522415187706166	-0.12892681188816787	0.5545782400170065	0.47112839644082827	-0.13766933410051135	0.33780062559588875	0.5668184738457056	-0.11345453549653371	0.23282513042541605	0.6072063249841023	-0.13580671028929647	0.18848337608596952	0.609255460952707	-0.13050465800323952	0.25912009339280817	0.6369174985627921
195	3.3620689655172415	0.20447110559346215	0.4641173410039446	0.6812600616353144	0.16787447974889008	0.571567642539442	1.1487367490185292	0.14624145111000625	0.6817627591743037	1.5438303140275353	0.10460527224949454	0.48746525154670034	1.5613289030121005	0.16470681002409002	0.48596939942490824	1.5633277909541352	0.13553323599256623	0.7742266949682051	1.6004927079397513	-0.012075884789948869	0.49426149390618757	0.6799125356682684	-0.029941070931085226	0.6185037210796795	1.1291561057559023	-0.013888582783524964	0.6998600885553712	1.5300384865045022	-0.05072409617151861	0.49033205752513664	1.530994137376741	-0.09172854645636842	0.5576046920870257	1.5450547540322106	0.005244005006955733	0.766521769217326	1.5940144775221041	0.08376833524658701	0.486970667796774	0.18668983415350698	0.03204160923657721	0.40165759638643317	-0.06069107462699815	0.05718724934128606	0.334326384505847	0.07464787733857813	0.23391565386382085	0.41184379907674795	0.23776457429919762	0.31185154833773726	0.2333210533136008	0.39424036065440793	0.170969610358921	0.05142448874279585	0.39441610330253923	0.05455240644919177	0.0351291925856293	0.35522441535423277	0.05282567384330316	0.01657198096585149	0.3624506424031385	0.0837778091194029	0.0037770641138359998	0.4139651518831803	-0.06399215065458458	0.5100262041002174	0.2657332065968333	-0.1289384553706145	0.5548912342537635	0.47495200780690994	-0.13757146320648767	0.337708365228558	0.5668712998514123	-0.11348589784606582	0.2327307402976094	0.6040679388099165	-0.131804826307221	0.18857252633213345	0.60957256562879	-0.13043365634377493	0.259029591202177	0.636810823364653
196	3.3793103448275863	0.20505146798515528	0.46550794334906953	0.6851564912983056	0.1712915629207796	0.5716662833568341	1.1451920851082984	0.1461954607203881	0.6816717205738323	1.5437766919750042	0.1045756389483117	0.4873849419508739	1.561284077660103	0.16467759363065124	0.48594634361232475	1.563361900699646	0.13544422355109392	0.774010949815671	1.600394873672068	-0.012343736091851628	0.49348580630648653	0.680086713021797	-0.02996314728619854	0.6183326598463663	1.129265556016814	-0.015047268787918202	0.7010097312380695	1.534932827185007	-0.05078817289584686	0.4903478414621451	1.5308956305422001	-0.09177207063449765	0.5574296010946602	1.544872616319426	0.005999930524994017	0.7684939588099413	1.5980380470171534	0.0838195533375841	0.4869108048547445	0.18648743364817397	0.034801650896305915	0.3896300635760406	-0.05997904274565515	0.05714318234951794	0.3342842614064645	0.0745567489878908	0.23790430298623635	0.4122506305602242	0.23800178636635602	0.31184293869448276	0.2341674506020919	0.39714476158565226	0.16893470283758583	0.0615968533591017	0.3955177610896749	0.046844227717105315	0.02644816640454271	0.35419561668649635	0.04723070801526997	0.017880972322530646	0.3659529923283239	0.08341574278030195	0.003626050460894804	0.41422754535542644	-0.06401953479147308	0.5102014119151607	0.2659509476909534	-0.12899101633244275	0.5547326320486253	0.4750931067242045	-0.1375297545572826	0.3375367130469087	0.5668216105028232	-0.11010321060338996	0.22106034687792803	0.6052174267780259	-0.13156170712006549	0.18787325691788032	0.6094765362842297	-0.13046227296304033	0.25873323708843765	0.6369138483131418
